HIERARCHY
ROOT Hips
{
 OFFSET 0.000000 0.000000 0.000000
 CHANNELS 6 Xposition Yposition Zposition Yrotation Xrotation Zrotation
 JOINT Chest
 {
  OFFSET 0.000000 12.953391 -0.028419
  CHANNELS 3 Yrotation Xrotation Zrotation
  JOINT Chest2
  {
   OFFSET 0.000000 10.280254 0.051622
   CHANNELS 3 Yrotation Xrotation Zrotation
   JOINT Chest3
   {
    OFFSET 0.000000 9.287180 0.000000
    CHANNELS 3 Yrotation Xrotation Zrotation
    JOINT Chest4
    {
     OFFSET 0.000000 9.287180 0.000000
     CHANNELS 3 Yrotation Xrotation Zrotation
     JOINT Neck
     {
      OFFSET 0.000000 13.296264 0.000000
      CHANNELS 3 Yrotation Xrotation Zrotation
      JOINT Head
      {
       OFFSET 0.000000 8.959264 0.099003
       CHANNELS 3 Yrotation Xrotation Zrotation
       End Site
       {
        OFFSET 0.000000 17.121337 0.039303
       }
      }
     }
     JOINT RightCollar
     {
      OFFSET -3.193511 7.451388 0.000000
      CHANNELS 3 Yrotation Xrotation Zrotation
      JOINT RightShoulder
      {
       OFFSET -15.792092 0.000000 0.000000
       CHANNELS 3 Yrotation Xrotation Zrotation
       JOINT RightElbow
       {
        OFFSET -31.151839 0.000000 0.000000
        CHANNELS 3 Yrotation Xrotation Zrotation
        JOINT RightWrist
        {
         OFFSET -25.536298 0.000000 0.002321
         CHANNELS 3 Yrotation Xrotation Zrotation
         End Site
         {
          OFFSET -19.133213 0.000000 0.000000
         }
        }
       }
      }
     }
     JOINT LeftCollar
     {
      OFFSET 3.193511 7.451388 0.000000
      CHANNELS 3 Yrotation Xrotation Zrotation
      JOINT LeftShoulder
      {
       OFFSET 15.792092 0.000000 0.000000
       CHANNELS 3 Yrotation Xrotation Zrotation
       JOINT LeftElbow
       {
        OFFSET 31.151839 0.000000 0.000000
        CHANNELS 3 Yrotation Xrotation Zrotation
        JOINT LeftWrist
        {
         OFFSET 25.536298 0.000000 0.002321
         CHANNELS 3 Yrotation Xrotation Zrotation
         End Site
         {
          OFFSET 19.133213 0.000000 0.000000
         }
        }
       }
      }
     }
    }
   }
  }
 }
 JOINT RightHip
 {
  OFFSET -10.745749 0.139252 0.014209
  CHANNELS 3 Yrotation Xrotation Zrotation
  JOINT RightKnee
  {
   OFFSET 0.000000 -43.743899 -0.006071
   CHANNELS 3 Yrotation Xrotation Zrotation
   JOINT RightAnkle
   {
    OFFSET 0.000000 -43.214199 0.089931
    CHANNELS 3 Yrotation Xrotation Zrotation
    JOINT RightToe
    {
     OFFSET 0.000000 -9.699830 19.151588
     CHANNELS 3 Yrotation Xrotation Zrotation
     End Site
     {
      OFFSET 0.000000 -1.292898 4.893873
     }
    }
   }
  }
 }
 JOINT LeftHip
 {
  OFFSET 10.745749 0.139252 0.014209
  CHANNELS 3 Yrotation Xrotation Zrotation
  JOINT LeftKnee
  {
   OFFSET 0.000000 -43.743899 -0.006071
   CHANNELS 3 Yrotation Xrotation Zrotation
   JOINT LeftAnkle
   {
    OFFSET 0.000000 -43.214199 0.089931
    CHANNELS 3 Yrotation Xrotation Zrotation
    JOINT LeftToe
    {
     OFFSET 0.000000 -9.699830 19.151588
     CHANNELS 3 Yrotation Xrotation Zrotation
     End Site
     {
      OFFSET 0.000000 -1.292898 4.893873
     }
    }
   }
  }
 }
}
MOTION
Frames: 5
Frame Time: 0.016667
63.846937 98.202443 -302.332120 -11.924903 -2.860845 0.293653 -2.665654 6.082018 0.881653 -1.194587 2.698032 0.426256 -1.194587 2.698032 0.426256 -0.897658 2.022701 0.324911 -7.940734 16.799190 5.691066 -16.630171 -3.701780 13.229912 10.483764 -18.465065 -7.184946 5.615820 -31.187965 10.363034 -11.252083 16.288364 -13.421101 8.525214 21.051746 8.787932 -30.351308 -17.198869 13.273448 32.833666 -15.059108 -12.179481 15.878292 12.271840 9.957039 -1.914573 12.115925 -4.559171 -5.230896 5.854089 -0.671968 -0.120723 2.214386 0.210835 -6.844292 -5.482438 0.915092 -0.000000 -0.000000 0.000000 4.925110 4.516132 1.413011 0.086647 3.894207 -0.506292 4.375885 -5.516489 -0.792309 -0.000000 0.000000 -0.000000
63.843253 98.202015 -302.332595 -11.905002 -2.868695 0.294060 -2.673149 6.082642 0.880867 -1.197904 2.698300 0.426009 -1.197904 2.698300 0.426009 -0.900144 2.022900 0.324741 -7.944475 16.801488 5.697957 -16.638927 -3.695551 13.243370 10.482130 -18.472202 -7.178374 5.605956 -31.191355 10.361966 -11.262123 16.287368 -13.420436 8.523844 21.052132 8.781749 -30.336144 -17.207675 13.273821 32.818124 -15.042961 -12.174112 15.863120 12.269042 9.955338 -1.915345 12.115906 -4.557204 -5.233947 5.864540 -0.669866 -0.132665 2.214723 0.210339 -6.849923 -5.485369 0.913622 0.000000 -0.000000 0.000000 4.911100 4.518970 1.414554 0.083906 3.898819 -0.505845 4.373633 -5.515791 -0.794011 -0.000000 0.000000 0.000000
63.840793 98.201667 -302.334119 -11.889764 -2.872213 0.294307 -2.683419 6.079802 0.880247 -1.202449 2.697021 0.425853 -1.202449 2.697021 0.425853 -0.903551 2.021939 0.324642 -7.944599 16.802625 5.703618 -16.640820 -3.692354 13.253601 10.478511 -18.482493 -7.170028 5.600646 -31.200499 10.371839 -11.256725 16.303440 -13.419064 8.527806 21.053821 8.770887 -30.322799 -17.212137 13.266848 32.815403 -15.037111 -12.160738 15.856290 12.268156 9.952604 -1.917707 12.111708 -4.550890 -5.230580 5.867282 -0.667836 -0.143914 2.218952 0.210855 -6.858328 -5.488291 0.912319 -0.000000 -0.000000 -0.000000 4.906131 4.517746 1.416237 0.078455 3.902378 -0.505762 4.368487 -5.514721 -0.794371 -0.000000 -0.000000 0.000000
63.839029 98.201328 -302.336259 -11.877053 -2.873337 0.294427 -2.695689 6.074782 0.879787 -1.207882 2.694769 0.425781 -1.207882 2.694769 0.425781 -0.907624 2.020246 0.324608 -7.943062 16.803025 5.708623 -16.639566 -3.690941 13.262218 10.475167 -18.492867 -7.160316 5.597426 -31.214174 10.387702 -11.242742 16.328414 -13.416920 8.534564 21.055747 8.759247 -30.308833 -17.213157 13.255547 32.819725 -15.037116 -12.144639 15.854349 12.267716 9.949298 -1.920591 12.105711 -4.543176 -5.223111 5.866088 -0.665733 -0.155197 2.224678 0.211899 -6.868386 -5.490930 0.911119 0.000000 -0.000000 -0.000000 4.906197 4.514390 1.418059 0.071490 3.905067 -0.505921 4.361709 -5.513360 -0.794062 0.000000 0.000000 -0.000000
63.837583 98.201028 -302.339371 -11.869384 -2.874964 0.294577 -2.705768 6.070551 0.880055 -1.212353 2.692868 0.426008 -1.212353 2.692868 0.426008 -0.910976 2.018817 0.324794 -7.940937 16.802572 5.711183 -16.636570 -3.691671 13.266308 10.474101 -18.499746 -7.150277 5.598127 -31.227451 10.398131 -11.231373 16.337152 -13.413234 8.537186 21.061586 8.754496 -30.296103 -17.214232 13.246618 32.824665 -15.042173 -12.134626 15.860743 12.268258 9.947334 -1.919502 12.103745 -4.539628 -5.211827 5.864975 -0.663319 -0.166272 2.228925 0.212508 -6.877148 -5.492424 0.909940 -0.000000 -0.000000 -0.000000 4.908083 4.511825 1.419925 0.065840 3.907303 -0.506408 4.356858 -5.512010 -0.793716 0.000000 -0.000000 -0.000000
